<svg width="233" height="70" viewBox="0 0 233 70" fill="none" xmlns="http://www.w3.org/2000/svg">
<g clip-path="url(#clip0_806_61)">
<path d="M63.2699 44.2432C59.5119 44.2432 55.9906 42.6335 52.7913 40.0131L53.5703 36.314L53.6042 36.1769C54.2979 32.2384 56.4987 25.6273 63.2699 25.6273C68.3479 25.6273 72.4785 29.8062 72.4785 34.9437C72.4613 40.0643 68.3312 44.2432 63.2699 44.2432ZM63.2699 16.1912C54.6195 16.1912 47.9165 21.877 45.1914 31.2277C41.0269 24.9082 37.8782 17.3216 36.0333 10.9336H26.7231V35.4404C26.7231 40.2699 22.8297 44.2085 18.056 44.2085C13.2823 44.2085 9.38935 40.2699 9.38935 35.4404V10.9336H0.0782312V35.4404C0.0443594 45.4764 8.11894 53.7136 18.0384 53.7136C27.9579 53.7136 36.0338 45.4764 36.0338 35.4404V31.3305C37.8448 35.1493 40.0623 39.0024 42.7539 42.4279L37.049 69.5546H46.5796L50.7097 49.8773C54.3322 52.2236 58.4966 53.6967 63.2703 53.6967C73.4774 53.6967 81.7891 45.2365 81.7891 34.9095C81.7891 24.5998 73.4774 16.1912 63.2703 16.1912" fill="#32457A"/>
<path d="M110.216 17.2537L116.225 41.7605L122.844 17.2537H130.732L120.559 52.6697H112.671L106.425 28.0084L100.195 52.6523H92.307L82.1328 17.2368H90.0213L96.6399 41.7436L102.649 17.2368H110.216L110.216 17.2537ZM149.607 16.1919C139.366 16.1919 131.071 24.6004 131.071 34.9443C131.071 45.3057 139.382 53.6973 149.607 53.6973C159.848 53.6973 168.159 45.3057 168.159 34.9443C168.159 24.5835 159.848 16.1919 149.607 16.1919ZM149.607 45.9906C143.581 45.9906 138.705 41.0582 138.705 34.9617C138.705 28.8652 143.597 23.9328 149.607 23.9328C155.633 23.9328 160.508 28.8647 160.508 34.9617C160.508 41.0413 155.633 45.9906 149.607 45.9906ZM190.69 25.1829C185.392 25.1829 181.109 29.5327 181.109 34.8758V52.6523H173.17V17.2537H181.109V22.6996C181.109 22.6996 184.495 17.2364 191.452 17.2364H193.889V25.1829H190.69ZM217.334 33.5745C222.971 30.3547 226.797 24.2408 226.797 17.2364H218.857C218.857 23.1446 214.118 27.9399 208.278 27.9399H207.211V0.162109H199.273V52.6519H207.211V35.9719H208.16C208.938 35.9719 209.954 36.4859 210.411 37.1192L221.684 52.6523H231.198L217.334 33.5745Z" fill="#32457A"/>
</g>
<defs>
<clipPath id="clip0_806_61">
<rect width="232.584" height="69.5028" fill="white" transform="translate(0 0.498047)"/>
</clipPath>
</defs>
</svg>
