<svg width="255" height="73" viewBox="0 0 255 73" fill="none" xmlns="http://www.w3.org/2000/svg">
<g clip-path="url(#clip0_806_106)">
<path d="M32.7378 65.416L32.8881 67.2569L34.4914 68.175L32.7855 68.8861L32.4037 70.6914L31.1989 69.2905L29.3594 69.4879L30.3209 67.9134L29.5646 66.2294L31.3635 66.6552L32.7378 65.416Z" fill="#32457A"/>
<path d="M43.0908 67.5566L43.9521 69.2525L45.8393 69.507L44.4865 70.8436L44.8253 72.7131L43.1337 71.8449L41.4541 72.744L41.7595 70.8698L40.3828 69.5569L42.2653 69.2667L43.0908 67.5566Z" fill="#32457A"/>
<path d="M53.5882 65.4434L54.9791 66.742L56.8401 66.3353L56.0313 68.0525L56.9928 69.6912L55.1032 69.4558L53.8387 70.8757L53.4784 69.011L51.7344 68.2499L53.4021 67.3318L53.5882 65.4434Z" fill="#32457A"/>
<path d="M0.0882768 45.7923L0 42.189L7.39139 39.9961L7.43911 42.0082L5.95988 42.415L6.02907 45.2762L7.525 45.6116L7.57272 47.6237L0.0882768 45.7923ZM4.27069 42.8811L1.84188 43.5756L1.85859 44.3177L4.31841 44.8957L4.27069 42.8835V42.8811Z" fill="#32457A"/>
<path d="M0.03125 38.4728L0.596699 35.7756L4.65743 35.0526L4.71231 34.7934L1.28144 32.5077L1.84689 29.8105L9.13092 31.328L8.72771 33.2474L4.56438 32.3792L3.66014 32.0272L3.63867 32.1319L6.77846 34.2487L6.33231 36.375L2.60321 37.06L2.58173 37.1646L3.55039 37.2051L7.71372 38.0732L7.31051 39.9926L0.03125 38.4728Z" fill="#32457A"/>
<path d="M7.60246 30.6224L7.99374 28.822C7.99374 28.822 8.67133 28.8933 9.00058 28.1679C9.28449 27.54 9.09601 27.05 8.46614 26.767L4.05469 24.7905L4.86111 23.002L9.27256 24.9808C10.8711 25.6967 11.4318 27.169 10.6468 28.91C9.6877 31.0363 7.60008 30.6248 7.60008 30.6248L7.60246 30.6224Z" fill="#32457A"/>
<path d="M5.75 21.5401L6.77115 19.8633L13.1319 23.7116L12.1107 25.3884L5.75 21.5401Z" fill="#32457A"/>
<path d="M7.69531 18.3772L8.9121 16.8359L13.3379 20.3108L15.5424 17.5209L16.962 18.6364L13.5407 22.9651L7.69531 18.3748V18.3772Z" fill="#32457A"/>
<path d="M14.0409 13.7472L12.3422 15.3479L11.1016 14.0397L15.9305 9.49219L17.1712 10.8027L15.4725 12.4034L19.3399 16.4848L17.9108 17.831L14.0433 13.7496L14.0409 13.7472Z" fill="#32457A"/>
<path d="M20.7037 10.4677C19.6324 8.51496 20.31 6.21502 22.4549 5.04484C25.2988 3.4941 27.26 5.74647 27.26 5.74647L25.4873 6.71212C25.4873 6.71212 24.5783 5.93913 23.321 6.62411C22.2473 7.20921 21.9085 8.35799 22.5217 9.47347C23.1325 10.589 24.2872 10.9267 25.3609 10.3416C26.759 9.5805 26.4274 8.31042 26.4274 8.31042L28.2 7.34478C28.2 7.34478 29.0709 10.3725 26.2269 11.9209C24.0821 13.0887 21.7725 12.4156 20.7037 10.4629V10.4677Z" fill="#32457A"/>
<path d="M30.8487 6.80069L26.8047 3.05229L28.785 2.44579L31.1517 4.71481L31.3044 4.66724L31.9868 1.46587L33.967 0.859375L32.7288 6.22511L33.509 8.75813L31.6289 9.33371L30.8487 6.80307V6.80069Z" fill="#32457A"/>
<path d="M35.3359 0.639477L39.2989 0.225631C40.8831 0.0615195 41.8183 0.815481 41.9233 1.8168C42.0569 3.08212 40.9212 3.46505 40.9212 3.46505L40.926 3.51738C40.926 3.51738 42.3814 3.63154 42.5412 5.16087C42.6677 6.37387 41.8159 7.42038 39.9669 7.61303L36.109 8.01498L35.3359 0.639477ZM39.1748 3.11542C39.7021 3.06072 39.9406 2.76817 39.9001 2.39951C39.8619 2.03086 39.5685 1.79539 39.0412 1.8501L37.4546 2.01659L37.5882 3.28191L39.1748 3.1178V3.11542ZM39.5899 6.05516C40.2771 5.98381 40.561 5.63418 40.5156 5.2132C40.4727 4.79221 40.122 4.50918 39.4348 4.58053L37.7433 4.75654L37.8984 6.23116L39.5899 6.05516Z" fill="#32457A"/>
<path d="M43.7809 -0.00500877L49.5022 0.456406L49.3567 2.25212L45.5942 1.94768L45.5035 3.05603L48.524 3.29863L48.3952 4.88266L45.3747 4.64006L45.284 5.74841L49.0465 6.05047L48.901 7.84618L43.1797 7.38477L43.7785 -0.00976562L43.7809 -0.00500877Z" fill="#32457A"/>
<path d="M51.3817 0.753906L54.9701 1.74095C56.7141 2.21902 57.5301 3.65321 57.1484 5.03508C56.8525 6.10775 56.0008 6.59057 55.1204 6.78798L55.9149 9.70155L53.8654 9.13786L53.1783 6.64051L51.8971 6.28851L51.303 8.43385L49.4062 7.91297L51.3841 0.758663L51.3817 0.753906ZM54.0157 4.99702C54.6313 5.16589 55.0894 4.90664 55.2015 4.49755C55.3136 4.08846 55.056 3.6318 54.4404 3.46294L52.7989 3.01103L52.3743 4.54512L54.0157 4.99702Z" fill="#32457A"/>
<path d="M59.4367 8.64522L61.1736 9.6727C61.1736 9.6727 60.9421 10.5813 62.0373 11.2306C62.722 11.6349 63.1586 11.5255 63.3232 11.252C63.9197 10.2507 59.7755 8.59765 61.1569 6.2763C61.7796 5.2298 63.3089 4.83973 65.0005 5.83867C67.4675 7.29903 66.5943 9.49194 66.5943 9.49194L64.8573 8.46446C64.8573 8.46446 65.0458 7.83655 64.132 7.29665C63.4926 6.91848 63.1276 7.01124 62.994 7.23957C62.3975 8.24089 66.5418 9.89389 65.1603 12.2152C64.509 13.3093 62.9988 13.7707 61.1712 12.6885C58.5658 11.1473 59.4367 8.64522 59.4367 8.64522Z" fill="#32457A"/>
<path d="M66.6044 11.3596C68.1147 9.71849 70.5172 9.61384 72.3209 11.2621C74.7116 13.4479 73.2061 16.0261 73.2061 16.0261L71.7173 14.6656C71.7173 14.6656 72.1587 13.5597 71.0994 12.5916C70.1975 11.7687 68.9951 11.8186 68.1338 12.7581C67.2725 13.6952 67.3226 14.8939 68.2244 15.7169C69.4007 16.7919 70.4981 16.0689 70.4981 16.0689L71.9869 17.4294C71.9869 17.4294 69.3935 19.2298 67.0029 17.044C65.1991 15.3958 65.0966 13.0007 66.6044 11.3596Z" fill="#32457A"/>
<path d="M76.3099 15.5801L77.4384 17.1855L75.1766 18.7672L76.8228 21.1099L79.0846 19.5283L80.2131 21.1337L74.122 25.3887L72.9935 23.7833L75.3436 22.1422L73.6973 19.7994L71.3473 21.4405L70.2188 19.8351L76.3099 15.5801Z" fill="#32457A"/>
<path d="M77.8146 24.2641C79.7806 23.4602 82.0996 24.345 83.0254 26.5998C83.9535 28.8545 82.9275 31.1069 80.9616 31.9108C78.9956 32.7147 76.6766 31.8299 75.7509 29.5752C74.8252 27.3204 75.8487 25.068 77.8146 24.2641ZM80.1743 30.0009C81.3553 29.5181 81.8181 28.4121 81.3553 27.2847C80.8924 26.1574 79.783 25.6936 78.602 26.1764C77.421 26.6592 76.9581 27.7652 77.421 28.8926C77.8838 30.0199 78.9933 30.4813 80.1743 30.0009Z" fill="#32457A"/>
<path d="M81.203 32.793C83.3026 32.4671 85.3496 33.8632 85.7266 36.2726C86.1036 38.6819 84.579 40.6323 82.4794 40.9581C80.3799 41.2839 78.3328 39.8854 77.9558 37.4785C77.5789 35.0715 79.1035 33.1188 81.203 32.793ZM82.1597 38.9174C83.4195 38.7224 84.1281 37.7544 83.942 36.5509C83.7535 35.3474 82.7824 34.641 81.5227 34.836C80.263 35.0311 79.5544 35.9991 79.7405 37.2026C79.929 38.406 80.9 39.1124 82.1597 38.9174Z" fill="#32457A"/>
<path d="M86.0985 42.2654L86.0174 44.2252L80.3891 43.9945L80.2436 47.5407L78.4375 47.467L78.6642 41.9609L86.0985 42.2654Z" fill="#32457A"/>
<path d="M57.1079 49.105C58.8997 47.6969 60.6676 46.2794 61.9751 44.3766L62.1087 44.4528C61.1853 46.384 59.9733 48.1203 58.4583 49.6401C54.0946 54.014 48.8051 56.2474 42.6234 56.1237C36.4511 56.0024 31.2142 53.6454 27.0413 49.0693C25.3139 47.1737 23.7679 44.7857 23.8299 44.1911C24.7843 45.3256 25.7553 46.4007 26.8003 47.4401C27.2012 47.8396 29.4033 45.0711 31.2667 42.4525C31.8727 41.601 32.1375 41.211 32.5192 40.6068C32.6528 40.4285 32.6481 40.2929 32.493 40.1193C32.1685 39.7577 31.8846 39.3605 31.5506 39.0062C31.1569 38.5899 31.0448 38.0976 31.1593 37.572C31.2857 36.9892 31.4599 36.4137 31.6508 35.85C31.9323 35.0199 32.2592 34.2041 32.5479 33.374C32.6457 33.0934 32.7745 32.9483 33.1014 32.9721C33.5118 33.003 33.5356 32.9626 33.5547 32.5463C33.5738 32.0921 33.5523 31.6354 33.6048 31.1859C33.631 30.9671 33.7503 30.7364 33.8839 30.5556C34.2728 30.0347 34.6999 29.5448 35.0936 29.0287C35.3656 28.6695 35.6566 28.4031 36.1529 28.4697C36.4392 28.5078 36.6826 28.3817 36.8663 28.1653C37.1192 27.8632 37.3673 27.5612 37.6059 27.2472C37.8421 26.938 38.1379 26.781 38.5221 26.8619C38.9634 26.9547 39.2617 26.7668 39.4931 26.4195C39.7412 26.0532 40.0442 25.7892 40.5262 25.775C40.6693 25.7702 40.8125 25.656 40.9509 25.5752C40.9938 25.549 41.0344 25.5157 41.0654 25.4753C41.7597 24.65 42.2488 24.3812 43.425 25.2755C43.9499 25.6774 44.4056 25.8011 45.0188 25.7131C45.3814 25.6608 45.7679 25.6917 46.1306 25.7607C46.8058 25.8891 47.1016 26.3172 47.011 26.988C46.9561 27.397 47.4094 27.3661 47.5072 27.3661C48.2516 27.3804 48.6023 27.8252 48.8051 28.4792C49.0151 29.1595 48.9936 29.8254 48.7693 30.489C48.6882 30.7292 48.7526 30.8434 48.9888 30.9243C49.2918 31.0289 49.5877 31.1597 49.8764 31.3C50.2605 31.4879 50.48 31.9065 50.4036 32.3252C50.3464 32.6391 50.2724 32.9554 50.1603 33.2551C50.0649 33.5096 50.115 33.6761 50.3225 33.8426C50.5396 34.0186 50.7305 34.2255 50.9309 34.4182C51.2697 34.7416 51.358 35.2554 51.1385 35.6692C50.9906 35.9475 50.8021 36.2044 50.6637 36.4874C50.5659 36.6872 50.4609 36.9131 50.4681 37.1224C50.4991 37.9668 50.5349 38.8159 50.6518 39.6531C50.7114 40.0764 50.8927 40.5093 51.1194 40.8756C52.7155 43.4705 54.5884 45.8655 56.4613 48.2606C56.6761 48.5341 56.886 48.8124 57.1079 49.1002V49.105ZM56.4995 49.5925C56.3086 49.3523 56.1297 49.1549 55.977 48.9361C54.1948 46.4102 52.4173 43.8819 50.6446 41.3489C50.5492 41.211 50.4943 41.0302 50.4585 40.8613C50.208 39.7102 49.9718 38.5566 49.7213 37.4079C49.7046 37.3365 49.5996 37.2271 49.54 37.2318C48.631 37.308 48.1084 36.7942 47.7482 36.0569C47.6289 35.8167 47.4929 35.743 47.2257 35.7477C46.7557 35.7572 46.2499 35.7168 45.9588 35.2982C45.2359 34.2636 44.2911 33.4335 43.4298 32.5297C43.3248 32.4203 43.1292 32.3442 42.9741 32.3394C42.1891 32.318 41.9601 32.1824 41.6619 31.4523C41.5855 31.2691 41.4853 31.2263 41.2897 31.212C40.1564 31.1383 39.4382 31.8067 38.7845 32.5844C38.5459 32.8674 38.5292 33.2004 38.6938 33.5453C38.8966 33.9734 39.0851 34.411 39.2784 34.8463C39.4979 35.341 39.5432 35.8595 39.3333 36.3542C39.0684 36.9797 38.7845 37.6053 38.4338 38.1832C38.2047 38.5638 37.8731 38.9039 37.5272 39.1917C36.9426 39.6792 36.3151 39.6198 35.8332 39.0299C35.5302 38.6589 35.2677 38.2379 35.0578 37.805C34.7238 37.1201 34.2275 36.6563 33.4855 36.4779C33.309 36.4351 33.192 36.2686 33.2207 36.0902C33.3257 35.4076 33.3996 34.7178 33.4998 34.0329C33.5285 33.845 33.4545 33.7831 33.2851 33.7308C33.0728 33.6666 33.0203 33.8093 32.9702 33.9377C32.586 34.9057 32.2162 35.8833 31.8273 36.8489C31.541 37.5577 31.6627 38.1785 32.1709 38.7398C32.8032 39.439 33.3901 40.1763 34.0557 40.8399C34.6307 41.4131 35.2248 42.0172 35.9239 42.4097C37.7156 43.4181 39.6434 44.0746 41.7143 44.2339C42.1867 44.2696 42.5995 44.4147 42.9741 44.7025C43.7471 45.2971 44.3436 46.0463 44.9114 46.8264C46.3262 48.7744 47.7577 50.7128 49.1749 52.6607C49.3205 52.8629 49.4827 52.9152 49.707 52.8438C49.8143 52.8106 49.9265 52.7868 50.0362 52.7511C51.6944 52.2326 53.2691 51.5214 54.7817 50.6771C55.3662 50.3536 55.9126 49.9612 56.4995 49.5854V49.5925ZM28.0004 48.4414C28.1674 48.7411 29.6824 50.0754 31.8345 51.0814C33.0059 51.6237 35.1866 52.9057 35.8236 52.2706C36.8663 50.7508 37.7896 49.1644 38.5769 47.4995C38.7129 47.2117 38.8012 46.9002 38.8752 46.5886C39.1257 45.5492 38.7726 44.7762 37.8421 44.2411C37.2456 43.901 36.5991 43.7297 35.9215 43.6798C35.3441 43.6393 34.9003 43.3872 34.5424 42.9472C34.2538 42.5952 33.9627 42.2456 33.6501 41.9174C33.2994 41.5511 33.068 41.5463 32.7578 41.9506C32.4644 42.3336 32.2329 42.7641 31.9729 43.1732C31.5625 43.8177 31.1951 44.4932 30.7322 45.0973C29.9592 46.1058 29.1265 47.0666 28.3201 48.0489C28.2175 48.175 28.1173 48.3034 28.0076 48.4414H28.0004ZM48.4639 53.1578C48.3399 52.9842 48.2611 52.8653 48.1753 52.7535C46.9608 51.1457 45.7488 49.5331 44.5273 47.9276C44.1718 47.4591 43.8211 46.9786 43.4107 46.5577C42.6401 45.7656 41.7668 45.7062 40.9175 46.4054C40.5071 46.7432 40.1277 47.1475 39.8343 47.5875C38.7439 49.2334 37.6942 50.9054 36.6325 52.568C36.5752 52.6583 36.5346 52.7606 36.4821 52.8676C40.4498 54.0021 44.4032 54.1282 48.4639 53.1578ZM34.1416 34.499C34.0963 35.7144 34.793 36.466 35.7592 37.0154C36.5919 37.4911 37.4556 37.1724 37.8445 36.2947C38.1188 35.6764 38.1212 35.0342 37.8492 34.4277C37.6107 33.8949 37.3196 33.374 36.988 32.8936C36.642 32.3941 36.2054 31.9613 35.8332 31.4761V31.4713C35.6757 31.2668 35.8165 30.9742 36.0718 30.9671C36.1386 30.9671 36.203 30.9671 36.2674 30.9694C36.3485 30.9766 36.4201 31.0717 36.5036 31.1122C36.7422 31.2335 36.976 31.3762 37.2289 31.4594C38.1403 31.7496 38.9038 31.281 39.0636 30.3415C39.1185 30.0157 39.1209 29.6827 39.1782 29.3569V29.3521C39.2163 29.1381 39.4692 29.031 39.641 29.1618C39.6768 29.188 39.7054 29.2165 39.7245 29.2522C40.2781 30.2845 41.2205 30.7292 42.3036 30.9528C42.8023 31.0551 43.2747 30.948 43.6684 30.6032C43.9308 30.3748 43.9666 30.1275 43.728 29.8754C43.5324 29.6684 43.2938 29.4924 43.0552 29.3331C42.1844 28.7551 41.3087 28.1867 40.4308 27.6206C40.2494 27.5041 40.0562 27.3994 39.8605 27.3067C39.3714 27.076 38.9682 27.2329 38.5889 27.5754C38.1761 27.9465 37.7538 28.3127 37.3005 28.6362C36.5585 29.1666 35.7902 29.6542 35.0387 30.1703C34.4136 30.5984 34.0939 31.1954 34.0987 31.9589C34.1011 32.4108 34.0987 32.8674 34.0987 33.3217M47.6384 28.0535C47.4189 27.9536 47.1565 28.0273 47.0229 28.2271C46.6674 28.7575 46.3358 29.2665 45.9707 29.7541C45.5747 30.2845 45.119 30.7673 44.7181 31.2929C44.501 31.5783 44.3197 31.897 44.1718 32.2205C44.0501 32.4869 44.0954 32.7747 44.3125 32.9982C44.5368 33.2266 44.816 33.286 45.1118 33.1766C45.3146 33.1029 45.515 33.0078 45.6892 32.8865C46.665 32.1967 47.481 31.3524 48.075 30.3178C48.2755 29.9681 48.4019 29.5614 48.4878 29.1642C48.5713 28.7813 48.4043 28.4483 48.0464 28.2557C47.9128 28.1819 47.7744 28.1177 47.6384 28.0535ZM46.4694 27.1402C46.4503 26.6502 46.331 26.2935 45.9564 26.0865C45.5603 25.8677 45.1715 25.9795 44.7993 26.1555C44.6991 26.2364 44.6919 26.322 44.6895 26.4314C44.68 27.1164 44.5631 27.2757 44.2958 27.692C44.0811 28.0273 43.8855 28.3817 43.7376 28.7528C43.6254 29.0334 43.7042 29.3331 43.9499 29.5424C44.21 29.766 44.4843 29.6589 44.7301 29.5138C45.4721 29.0738 46.028 28.4626 46.3525 27.6587C46.4288 27.4708 46.4455 27.2591 46.4717 27.1426L46.4694 27.1402ZM49.9599 31.7448C49.6998 31.3952 49.0437 31.6069 48.7789 31.7971C48.1108 32.2823 47.469 32.7985 46.8344 33.3241C46.6769 33.4525 46.5576 33.638 46.4527 33.8164C46.3047 34.0709 46.3644 34.4039 46.603 34.5751C46.875 34.7726 47.1708 34.8344 47.4714 34.6608C48.3685 34.147 49.1773 33.5263 49.8072 32.7009C49.9551 32.5059 50.2008 32.0659 49.9599 31.7424V31.7448ZM40.7338 26.4243C40.5787 26.3981 40.414 26.4243 40.29 26.5242C40.259 26.548 40.2327 26.5765 40.216 26.6074C40.0848 26.8381 40.1564 27.0855 40.3425 27.2567C40.853 27.7181 41.4304 28.0773 42.1056 28.2485C42.3609 28.3127 42.5852 28.239 42.7164 28.0012C42.8429 27.7776 42.7116 27.5968 42.5613 27.4518C42.0937 27.0022 41.5545 26.6669 40.9318 26.4671C40.8721 26.4481 40.8077 26.4362 40.7314 26.4243H40.7338ZM50.6804 35.1983C50.6804 34.637 50.2462 34.2255 49.7857 34.3563C49.2966 34.4943 48.8409 35.0794 48.8337 35.5812C48.829 35.9427 49.0103 36.1806 49.3467 36.2543C49.9837 36.3899 50.678 35.8405 50.6804 35.1983ZM43.6397 26.4457C43.6469 26.1579 43.3391 25.7797 42.9717 25.6227C42.6925 25.5014 42.2702 25.5704 42.0746 25.7654C41.9219 25.9153 41.9315 26.0818 42.0412 26.2411C42.2822 26.5979 42.6186 26.831 43.0337 26.9333C43.3582 27.0117 43.6302 26.7787 43.6397 26.4457Z" fill="#32457A"/>
<path d="M108.776 24.3262H114.779L118.134 36.6464H114.779L114.161 34.1824H109.394L108.776 36.6464H105.422L108.776 24.3262ZM113.455 31.3663L112.396 27.3182H111.16L110.101 31.3663H113.455Z" fill="#32457A"/>
<path d="M119.281 24.3262H123.872L126.432 30.6623H126.873L129.433 24.3262H134.023V36.6464H130.757V29.6063L131.022 28.0222H130.846L128.462 33.8304H124.843L122.459 28.0222H122.283L122.547 29.6063V36.6464H119.281V24.3262Z" fill="#32457A"/>
<path d="M135.172 33.6544L138.173 33.0217C138.173 33.0217 138.526 34.0944 139.851 34.0944C140.998 34.0944 141.616 33.4784 141.616 32.3343V24.3262H144.882V32.3343C144.882 35.2384 143.029 37.0864 139.851 37.0864C135.966 37.0864 135.172 33.6544 135.172 33.6544Z" fill="#32457A"/>
<path d="M147.094 24.3262H150.36V36.6464H147.094V24.3262Z" fill="#32457A"/>
<path d="M152.656 24.3262H155.922V33.6544H161.837V36.6464H152.656V24.3262Z" fill="#32457A"/>
<path d="M164.829 27.3182H160.945V24.3262H171.98V27.3182H168.096V36.6464H164.829V27.3182Z" fill="#32457A"/>
<path d="M106.039 51.6078C106.039 47.9118 108.864 45.0957 112.925 45.0957C118.31 45.0957 119.369 49.9358 119.369 49.9358H116.014C116.014 49.9358 115.308 48.0878 112.925 48.0878C110.894 48.0878 109.482 49.4958 109.482 51.6078C109.482 53.7199 110.894 55.1279 112.925 55.1279C115.573 55.1279 116.103 53.0159 116.103 53.0159H119.457C119.457 53.0159 118.31 58.12 112.925 58.12C108.864 58.12 106.039 55.3039 106.039 51.6078Z" fill="#32457A"/>
<path d="M124.036 53.3713L119.445 45.4512H122.888L125.536 50.2033H125.801L128.45 45.4512H131.892L127.302 53.3713V57.7714H124.036V53.3713Z" fill="#32457A"/>
<path d="M132.875 45.4512H139.496C142.144 45.4512 143.557 46.8592 143.557 48.5312C143.557 50.6433 141.614 51.0833 141.614 51.0833V51.1713C141.614 51.1713 143.998 51.6113 143.998 54.1634C143.998 56.1874 142.409 57.7714 139.319 57.7714H132.875V45.4512ZM138.79 50.2033C139.672 50.2033 140.114 49.7633 140.114 49.1473C140.114 48.5312 139.672 48.0912 138.79 48.0912H136.141V50.2033H138.79ZM138.966 55.1314C140.114 55.1314 140.643 54.6034 140.643 53.8994C140.643 53.1953 140.114 52.6673 138.966 52.6673H136.141V55.1314H138.966Z" fill="#32457A"/>
<path d="M145.773 45.4512H155.307V48.4432H149.04V50.2913H154.071V52.9313H149.04V54.7794H155.307V57.7714H145.773V45.4512Z" fill="#32457A"/>
<path d="M157.156 45.4512H163.336C166.337 45.4512 168.279 47.3872 168.279 49.7633C168.279 51.6113 167.132 52.7553 165.807 53.4593L168.367 57.7714H164.836L162.629 54.0754H160.422V57.7714H157.156V45.4512ZM163.247 51.0833C164.307 51.0833 164.925 50.4673 164.925 49.7633C164.925 49.0592 164.307 48.4432 163.247 48.4432H160.422V51.0833H163.247Z" fill="#32457A"/>
<path d="M174.367 53.8079H177.722C177.722 53.8079 178.163 55.3039 180.282 55.3039C181.606 55.3039 182.136 54.7759 182.136 54.2479C182.136 52.3119 174.809 53.4559 174.809 48.9678C174.809 46.9437 176.662 45.0957 179.929 45.0957C184.696 45.0957 185.314 48.9678 185.314 48.9678H181.959C181.959 48.9678 181.694 47.9118 179.929 47.9118C178.693 47.9118 178.251 48.3518 178.251 48.7918C178.251 50.7278 185.578 49.5838 185.578 54.0719C185.578 56.1839 183.813 58.12 180.282 58.12C175.25 58.12 174.367 53.8079 174.367 53.8079Z" fill="#32457A"/>
<path d="M186.727 51.6078C186.727 47.9118 189.551 45.0957 193.612 45.0957C198.997 45.0957 200.056 49.9358 200.056 49.9358H196.702C196.702 49.9358 195.996 48.0878 193.612 48.0878C191.582 48.0878 190.169 49.4958 190.169 51.6078C190.169 53.7199 191.582 55.1279 193.612 55.1279C196.26 55.1279 196.79 53.0159 196.79 53.0159H200.145C200.145 53.0159 198.997 58.12 193.612 58.12C189.551 58.12 186.727 55.3039 186.727 51.6078Z" fill="#32457A"/>
<path d="M201.82 45.4512H205.087V50.0273H209.854V45.4512H213.12V57.7714H209.854V53.0193H205.087V57.7714H201.82V45.4512Z" fill="#32457A"/>
<path d="M214.891 51.6078C214.891 48.0878 217.715 45.0957 221.776 45.0957C225.837 45.0957 228.662 48.0878 228.662 51.6078C228.662 55.1279 225.837 58.12 221.776 58.12C217.715 58.12 214.891 55.1279 214.891 51.6078ZM225.219 51.6078C225.219 49.4958 223.807 48.0878 221.776 48.0878C219.746 48.0878 218.333 49.4958 218.333 51.6078C218.333 53.7199 219.746 55.1279 221.776 55.1279C223.807 55.1279 225.219 53.7199 225.219 51.6078Z" fill="#32457A"/>
<path d="M229.906 51.6078C229.906 48.0878 232.731 45.0957 236.792 45.0957C240.853 45.0957 243.677 48.0878 243.677 51.6078C243.677 55.1279 240.853 58.12 236.792 58.12C232.731 58.12 229.906 55.1279 229.906 51.6078ZM240.235 51.6078C240.235 49.4958 238.822 48.0878 236.792 48.0878C234.761 48.0878 233.349 49.4958 233.349 51.6078C233.349 53.7199 234.761 55.1279 236.792 55.1279C238.822 55.1279 240.235 53.7199 240.235 51.6078Z" fill="#32457A"/>
<path d="M245.438 45.4512H248.704V54.7794H254.618V57.7714H245.438V45.4512Z" fill="#32457A"/>
</g>
<defs>
<clipPath id="clip0_806_106">
<rect width="254.621" height="72.749" fill="white"/>
</clipPath>
</defs>
</svg>
