<svg width="253" height="60" viewBox="0 0 253 60" fill="none" xmlns="http://www.w3.org/2000/svg">
<path fill-rule="evenodd" clip-rule="evenodd" d="M30.0197 31.64C35.1531 32.4325 35.8469 35.4699 36.2619 38.2968L36.3311 38.7788L36.3782 39.1068L36.6281 40.7704C37.1171 43.9469 38.1374 50.5404 38.1374 53.9811C38.1374 54.8409 38.0617 55.5009 37.9235 55.8636C37.6932 56.4225 37.0221 56.9588 36.0954 57.4058C33.8532 57.9577 31.5095 58.2562 29.0953 58.2562C28.8397 58.2562 28.5882 58.2438 28.3359 58.2363C27.3602 57.9592 26.6269 57.4965 26.2387 56.8643C25.0664 54.956 24.9957 50.7044 24.9723 45.736L24.9696 45.1597L24.9601 43.6705C24.9219 38.4108 24.8891 33.8758 26.8001 32.2484C27.5402 31.6225 28.5918 31.4152 30.0197 31.64ZM18.8278 43.0914C19.9402 43.0288 20.6556 48.5004 20.7993 52.6494C20.9001 55.538 20.5968 56.7263 20.1125 57.1529C19.5641 56.9699 19.0253 56.7718 18.4944 56.5567C18.1402 55.913 17.8695 54.9006 17.6975 53.5746C17.1724 49.4072 17.6285 43.1648 18.8278 43.0914ZM46.7162 51.268C46.6469 51.648 46.549 51.9416 46.4284 52.1893C45.4773 52.9526 44.4776 53.6532 43.4315 54.2837C43.0983 54.3398 42.8023 54.3007 42.6577 54.0562C41.2712 51.62 40.7508 43.9776 42.0925 43.3124C43.8418 42.4674 46.9756 49.9467 46.7162 51.268ZM28.6813 0.896484C44.3005 0.896484 57.0023 13.2658 57.3525 28.6573L57.3597 29.1893V29.4353C57.331 36.3878 54.7724 42.7486 50.5572 47.6719C50.4043 47.5952 50.1254 47.344 49.6201 46.5881C49.0972 45.8283 44.588 38.8889 44.588 30.9352C44.588 29.3743 46.838 26.936 48.8289 24.7958C50.3172 23.1852 51.727 21.6661 52.2461 20.4721C52.9073 18.9314 52.4447 17.8557 51.713 17.491C51.0507 17.167 50.0564 17.4033 49.3586 18.6427C48.2135 20.6485 47.8466 21.0233 46.1763 22.3653C44.5328 23.7066 41.9199 25.0569 41.9199 23.3091C41.9199 22.3653 43.3752 20.228 44.0942 18.7298C44.8284 17.2149 44.037 16.1182 42.5209 16.1182C39.5438 16.1182 37.5676 19.9107 37.5676 21.2246C37.5676 22.5374 38.2044 22.7244 38.2044 24.2532C38.2044 25.7935 34.938 27.7914 31.861 27.7914C28.8985 27.7914 27.1806 27.1918 26.4688 25.5025L26.3779 25.2654L26.1722 24.6567C25.4422 22.5234 24.9187 20.9763 24.0072 19.3595C23.5232 18.5045 22.7765 17.9117 22.1306 17.3902C21.2865 16.7346 20.8486 16.1309 20.7572 15.6807C20.673 15.234 20.6276 14.3922 22.0706 12.4518C23.5105 10.5224 23.7123 9.06486 22.9917 8.31279C22.7306 8.04524 22.2853 7.87382 21.7135 7.87382C20.7022 7.87382 19.2969 8.40969 17.8486 9.88161C15.5974 12.1885 16.8754 14.3787 16.8754 15.3402C16.8754 16.301 16.463 16.8445 15.112 18.1517C13.7511 19.4647 13.2814 20.5904 13.1257 25.1146C13.0661 27.4458 12.6555 28.7876 12.287 29.9775C11.9685 31.0204 11.6757 32.0009 11.6598 33.4175C11.6346 34.9873 11.8959 35.999 12.2009 37.1663C12.5003 38.2452 12.8183 39.4815 13.022 41.5494C13.346 44.7507 13.2334 47.4548 12.6442 50.2187L12.487 50.9111L12.4502 51.1101C12.3296 51.5958 12.1862 52.1857 11.9923 52.4067C4.73354 47.251 0 38.831 0 29.313C0 13.6204 12.8405 0.896484 28.6813 0.896484Z" fill="#32457A"/>
<path d="M166.887 20.5605C169.725 20.5605 171.931 21.5654 173.506 23.5751C175.081 25.5849 175.868 28.3474 175.868 31.8627V32.1898C175.868 35.6233 175.063 38.3655 173.453 40.4161C171.842 42.4667 169.668 43.492 166.929 43.492C164.815 43.492 163.077 42.7494 161.715 41.2643V52.4226H154.543V20.9694H161.247L161.46 23.0132C162.836 21.3781 164.645 20.5605 166.887 20.5605ZM116.876 20.5605C119.813 20.5605 122.133 21.2486 123.835 22.6247C125.538 24.001 126.41 25.8881 126.453 28.2861V38.076C126.481 40.1062 126.808 41.6594 127.432 42.7358V43.0833H120.26C120.004 42.6336 119.777 41.9729 119.579 41.1008C118.259 42.6949 116.415 43.492 114.046 43.492C111.875 43.492 110.03 42.8618 108.512 41.6015C106.994 40.3412 106.235 38.7572 106.235 36.8496C106.235 34.4516 107.157 32.6394 109.002 31.4131C110.846 30.1869 113.528 29.5737 117.046 29.5737H119.26V28.4087C119.26 26.3786 118.344 25.3635 116.514 25.3635C114.812 25.3635 113.96 26.1674 113.96 27.7751H106.788C106.788 25.6359 107.735 23.8988 109.63 22.5634C111.523 21.2282 113.939 20.5605 116.876 20.5605ZM140.222 20.5605C143.258 20.5605 145.698 21.2214 147.542 22.543C149.387 23.8648 150.309 25.6019 150.309 27.7547H143.116C143.116 25.9835 142.144 25.0978 140.2 25.0978C139.448 25.0978 138.817 25.2988 138.306 25.7006C137.795 26.1027 137.54 26.6033 137.54 27.2029C137.54 27.8161 137.852 28.3134 138.476 28.6948C139.101 29.0764 140.097 29.3898 141.466 29.635C142.835 29.8804 144.038 30.1733 145.074 30.5138C148.536 31.6583 150.266 33.709 150.266 36.6657C150.266 38.6822 149.334 40.3241 147.468 41.5913C145.602 42.8584 143.187 43.492 140.222 43.492C138.249 43.492 136.49 43.1514 134.944 42.4701C133.397 41.7888 132.191 40.8623 131.325 39.6905C130.46 38.5187 130.027 37.2857 130.027 35.9913H136.731C136.76 37.0131 137.114 37.7591 137.795 38.2293C138.476 38.6993 139.349 38.9342 140.413 38.9342C141.392 38.9342 142.126 38.7435 142.616 38.3621C143.105 37.9805 143.35 37.4832 143.35 36.87C143.35 36.2842 143.031 35.8141 142.392 35.4599C141.754 35.1057 140.541 34.7377 138.753 34.3562C136.965 33.9748 135.49 33.474 134.326 32.8539C133.163 32.2341 132.276 31.4813 131.666 30.5956C131.056 29.7099 130.751 28.6948 130.751 27.5503C130.751 25.5201 131.624 23.8478 133.369 22.5328C135.114 21.218 137.398 20.5605 140.222 20.5605ZM86.3372 11.6513V26.4467L96.4879 11.6513H105.724L94.3817 26.4876L104.853 43.0833H95.9993L89.4018 32.0059L86.3372 35.2351V43.0833H78.8672V11.6513H86.3372ZM187.465 20.9694V43.0833H180.272V20.9694H187.465ZM250.712 20.9694V24.689L240.455 37.7693H250.946V43.0833H231.389V39.2409L241.604 26.2832H229.569L234.362 20.9694H250.712ZM197.082 35.9499C199.045 35.9499 200.633 37.4823 200.633 39.3729C200.633 41.2632 199.045 42.7958 197.082 42.7958C195.121 42.7958 193.531 41.2632 193.531 39.3729C193.531 37.4823 195.121 35.9499 197.082 35.9499ZM213.738 11.6504V28.1662L214.462 27.2555L219.883 20.8595H228.503L220.417 29.8664L229.037 42.7592H220.8L215.765 34.6025L213.738 36.5253V42.7592H206.546V11.6504H213.738ZM119.26 33.2526H117.174C114.677 33.2526 113.428 34.329 113.428 36.4818C113.428 37.1086 113.648 37.616 114.088 38.0045C114.528 38.3927 115.088 38.5869 115.769 38.5869C116.663 38.5869 117.404 38.403 117.993 38.0351C118.582 37.6671 119.004 37.2516 119.26 36.7883V33.2526ZM165.121 25.8745C163.418 25.8745 162.283 26.4603 161.715 27.6321V36.3387C162.34 37.565 163.489 38.1782 165.163 38.1782C167.447 38.1782 168.625 36.2842 168.696 32.4963V31.7605C168.696 27.8366 167.504 25.8745 165.121 25.8745ZM183.966 11.6504C185.927 11.6504 187.517 13.2558 187.517 15.2363C187.517 17.2167 185.927 18.8221 183.966 18.8221C182.005 18.8221 180.416 17.2167 180.416 15.2363C180.416 13.2558 182.005 11.6504 183.966 11.6504Z" fill="#32457A"/>
</svg>
