<svg width="481" height="49" viewBox="0 0 481 49" fill="none" xmlns="http://www.w3.org/2000/svg">
<g clip-path="url(#clip0_806_93)">
<mask id="mask0_806_93" style="mask-type:luminance" maskUnits="userSpaceOnUse" x="0" y="0" width="291" height="49">
<path d="M290.383 0.246094H0V48.6433H290.383V0.246094Z" fill="white"/>
</mask>
<g mask="url(#mask0_806_93)">
<path d="M113.895 4.66584C113.898 3.79161 114.16 2.93794 114.649 2.2128C115.137 1.48768 115.83 0.923649 116.638 0.592044C117.447 0.260435 118.336 0.176146 119.193 0.349833C120.05 0.523519 120.836 0.947382 121.452 1.56782C122.068 2.18825 122.486 2.97741 122.654 3.83547C122.821 4.69354 122.73 5.58199 122.393 6.38846C122.055 7.19492 121.486 7.8832 120.757 8.36626C120.029 8.8493 119.173 9.10545 118.299 9.10226C117.719 9.10014 117.144 8.9837 116.609 8.7596C116.073 8.53553 115.587 8.20815 115.178 7.79618C114.769 7.38423 114.445 6.89576 114.225 6.35864C114.005 5.82153 113.893 5.24632 113.895 4.66584ZM187.943 38.5923C188.821 38.5955 189.68 38.3381 190.413 37.8525C191.144 37.3669 191.714 36.6752 192.053 35.8648C192.39 35.0544 192.481 34.162 192.311 33.3005C192.142 32.4387 191.721 31.6467 191.101 31.0246C190.483 30.4026 189.692 29.9785 188.83 29.806C187.968 29.6336 187.077 29.7203 186.265 30.0557C185.453 30.3909 184.759 30.9597 184.272 31.6894C183.784 32.4195 183.522 33.2779 183.522 34.1559C183.522 35.3298 183.987 36.4558 184.817 37.2872C185.643 38.1187 186.769 38.588 187.943 38.5923ZM41.4603 11.1027C38.7386 11.1313 36.0862 11.9646 33.837 13.4975C31.588 15.0304 29.8426 17.1944 28.8211 19.7172C27.7992 22.2401 27.5468 25.0086 28.0953 27.6748C28.6438 30.3407 29.9686 32.7848 31.9035 34.6993C33.8381 36.6139 36.296 37.9131 38.9675 38.4338C41.639 38.9544 44.405 38.6728 46.917 37.6247C49.4288 36.5766 51.5746 34.8089 53.0839 32.5437C54.593 30.2787 55.3985 27.6178 55.3987 24.8959C55.458 23.0562 55.137 21.2238 54.4557 19.5137C53.7743 17.8039 52.7473 16.2529 51.4389 14.9582C50.1306 13.6634 48.569 12.6527 46.8519 11.9892C45.1349 11.3258 43.2994 11.024 41.4603 11.1027ZM41.4603 32.2361C37.6692 32.2361 35.0073 29.2193 35.0073 24.8959C35.0073 20.5724 37.653 17.5556 41.4603 17.5556C45.2675 17.5556 47.9133 20.5724 47.9133 24.8959C47.9133 29.2193 45.3482 32.2361 41.4603 32.2361ZM105.345 25.5895C105.074 25.0437 104.72 24.5431 104.296 24.1054L104.054 23.8472L104.312 23.6053C104.718 23.1661 105.09 22.697 105.425 22.2017L112.507 11.635H103.909L98.569 19.9109C98.3409 20.1597 98.056 20.3499 97.7386 20.465C97.4211 20.5801 97.0807 20.6172 96.7461 20.5724H95.5361V4.94009C95.5361 1.82654 93.5841 1.39096 91.4869 1.39096H87.8894V38.2858H95.52V27.2189H96.2298C97.101 27.2189 97.6979 27.3157 97.9721 27.7997L102.199 35.6884C102.566 36.5578 103.213 37.2796 104.037 37.7385C104.862 38.1976 105.816 38.3675 106.748 38.2212H112.604L108.232 31.01L105.345 25.5895ZM142.401 11.0381C140.956 11.0061 139.521 11.2766 138.188 11.8323C136.854 12.3879 135.652 13.2165 134.657 14.2646L134.189 14.7325L134.028 14.0872C133.78 13.2935 133.257 12.6142 132.554 12.1708C131.85 11.7274 131.012 11.5489 130.189 11.6673H126.752V38.2696H134.367V26.009C134.343 24.915 134.501 23.8245 134.835 22.7825C135.186 21.4277 135.984 20.2309 137.099 19.3848C138.214 18.5391 139.582 18.0935 140.981 18.1203C143.336 18.1203 144.208 19.3624 144.208 22.6051V34.2043C144.119 34.7562 144.162 35.3213 144.334 35.853C144.507 36.385 144.802 36.8683 145.197 37.2635C145.593 37.6589 146.076 37.9547 146.608 38.1268C147.14 38.2988 147.705 38.3422 148.257 38.2535H151.838V21.3306C151.887 14.6034 148.612 11.0381 142.401 11.0381ZM118.396 11.635H114.814V38.2858H122.397V15.7004C122.483 15.1526 122.439 14.5922 122.27 14.0642C122.1 13.5362 121.809 13.0553 121.42 12.6601C121.031 12.2648 120.555 11.9662 120.03 11.7882C119.505 11.6102 118.945 11.5578 118.396 11.635ZM71.2407 11.1027C68.519 11.1313 65.8667 11.9646 63.6175 13.4975C61.3684 15.0304 59.6231 17.1944 58.6015 19.7172C57.5796 22.2401 57.3272 25.0086 57.8757 27.6748C58.4242 30.3407 59.7491 32.7848 61.6839 34.6993C63.6185 36.6139 66.0764 37.9131 68.7479 38.4338C71.4194 38.9544 74.1854 38.6728 76.6974 37.6247C79.2092 36.5766 81.3549 34.8089 82.8643 32.5437C84.3734 30.2787 85.179 27.6178 85.1791 24.8959C85.2385 23.0562 84.9174 21.2238 84.2361 19.5137C83.5548 17.8039 82.5277 16.2529 81.2193 14.9582C79.911 13.6634 78.3494 12.6527 76.6324 11.9892C74.9153 11.3258 73.0798 11.024 71.2407 11.1027ZM71.2407 32.2361C67.4496 32.2361 64.7878 29.2193 64.7878 24.8959C64.7878 20.5724 67.4335 17.5556 71.2407 17.5556C75.048 17.5556 77.6937 20.5724 77.6937 24.8959C77.6937 29.2193 75.1286 32.2361 71.2407 32.2361ZM233.743 11.1027C231.022 11.1313 228.369 11.9646 226.119 13.4975C223.869 15.0304 222.125 17.1944 221.102 19.7172C220.082 22.2401 219.827 25.0086 220.376 27.6748C220.924 30.3407 222.251 32.7848 224.185 34.6993C226.119 36.6139 228.578 37.9131 231.249 38.4338C233.922 38.9544 236.686 38.6728 239.199 37.6247C241.71 36.5766 243.858 34.8089 245.365 32.5437C246.876 30.2787 247.681 27.6178 247.681 24.8959C247.74 23.0562 247.419 21.2238 246.738 19.5137C246.057 17.8039 245.03 16.2529 243.72 14.9582C242.413 13.6634 240.85 12.6527 239.134 11.9892C237.417 11.3258 235.582 11.024 233.743 11.1027ZM233.743 32.2361C229.951 32.2361 227.29 29.2193 227.29 24.8959C227.29 20.5724 229.935 17.5556 233.743 17.5556C237.55 17.5556 240.195 20.5724 240.195 24.8959C240.195 29.2193 237.63 32.2361 233.743 32.2361ZM177.037 11.5705C176.418 11.5106 175.795 11.631 175.242 11.9172C174.69 12.2034 174.232 12.6433 173.924 13.1838L173.73 13.5871L173.375 13.2806C171.412 11.6729 168.924 10.8457 166.39 10.9575C159.308 10.9575 154.516 16.2973 154.516 24.2344C154.516 32.1716 159.469 37.705 166.535 37.705C168.618 37.8004 170.673 37.1986 172.375 35.995L172.956 35.5432V36.2853C172.956 39.8506 170.649 41.8188 166.503 41.8188C164.762 41.7946 163.037 41.4728 161.405 40.8669C161.092 40.7078 160.746 40.6242 160.396 40.623C160.045 40.6216 159.699 40.7028 159.384 40.8596C159.071 41.0166 158.798 41.245 158.589 41.5264C158.379 41.8078 158.239 42.1346 158.178 42.4802L156.71 46.1584L157.243 46.4326C160.129 47.8677 163.312 48.6078 166.535 48.5944C172.988 48.5944 180.522 45.2711 180.522 35.9627V11.5705H177.037ZM167.874 31.0746C163.744 31.0746 162.26 27.4448 162.26 24.057C162.26 22.5567 162.631 17.6041 167.471 17.6041C169.874 17.6041 173.101 18.2816 173.101 24.2183C173.101 29.8969 170.261 31.0746 167.874 31.0746ZM21.1173 19.3624L20.0042 18.7494L20.9721 17.9428C21.9568 17.0772 22.7388 16.0056 23.2629 14.804C23.7871 13.6024 24.0403 12.3002 24.005 10.9897C24.005 5.18208 19.5041 1.43936 12.5671 1.43936H3.72659C2.73615 1.4764 1.79765 1.89185 1.10437 2.60014C0.411088 3.30843 0.0158262 4.25561 0 5.24661V38.1567H12.7123C20.4398 38.1567 25.4408 33.9461 25.4408 27.4125C25.5061 25.8068 25.1391 24.2129 24.3786 22.7968C23.6184 21.381 22.492 20.195 21.1173 19.3624ZM7.04986 10.0541C7.04986 8.34403 7.77582 7.53741 9.3568 7.44062H12.5833C13.1656 7.38837 13.7522 7.46489 14.3015 7.66473C14.8509 7.86458 15.3496 8.18287 15.7622 8.59701C16.1748 9.01116 16.4912 9.51103 16.689 10.0611C16.8868 10.6113 16.9611 11.1982 16.9068 11.7802C16.9703 12.3712 16.9053 12.9689 16.7158 13.5322C16.5264 14.0955 16.2169 14.6111 15.8092 15.0435C15.4014 15.4758 14.9047 15.8147 14.3534 16.0367C13.8021 16.2587 13.2092 16.3586 12.6155 16.3296H7.04986V10.0541ZM13.2286 31.9296H7.04986V24.5409C7.04986 22.9277 7.67903 22.1372 9.01802 21.9436H13.2286C14.5037 22.016 15.7028 22.5739 16.5799 23.5022C17.457 24.4307 17.9457 25.6595 17.9457 26.9366C17.9457 28.2139 17.457 29.4427 16.5799 30.371C15.7028 31.2995 14.5037 31.857 13.2286 31.9296ZM281.559 11.1188C279.991 11.1247 278.445 11.483 277.035 12.1672C275.626 12.8513 274.387 13.8438 273.412 15.0713L272.864 15.7811L272.428 14.9906C271.729 13.7242 270.68 12.6857 269.408 11.9992C268.135 11.3126 266.692 11.007 265.249 11.1188C263.933 11.1402 262.632 11.4303 261.433 11.9712C260.23 12.5121 259.153 13.2925 258.264 14.2646L257.554 15.039L257.28 14.0226C257.027 13.2669 256.518 12.6237 255.839 12.2051C255.161 11.7865 254.358 11.619 253.569 11.7318H250.343V38.2696H257.538V26.5575C257.547 25.5135 257.678 24.4744 257.925 23.4601C258.619 20.6208 260.522 17.5718 263.717 17.8783C265.685 18.0719 266.653 19.5883 266.653 22.5405V38.2696H273.944V26.5575C273.914 25.4678 274.048 24.3798 274.348 23.331C274.929 20.6369 276.913 17.8622 279.994 17.8622C282.22 17.8622 283.043 19.1205 283.043 22.5244V34.3978C283.043 37.0758 284.237 38.2696 286.915 38.2696H290.383V21.3306C290.383 14.555 287.399 11.1188 281.559 11.1188ZM215.674 29.058C213.771 31.0504 211.195 32.2637 208.447 32.462C207.452 32.5222 206.454 32.3716 205.518 32.0203C204.584 31.669 203.736 31.1246 203.026 30.4228C202.317 29.7211 201.763 28.8777 201.402 27.9476C201.04 27.0174 200.879 26.0215 200.929 25.0249C200.845 24.0416 200.969 23.0512 201.293 22.1191C201.619 21.187 202.137 20.3343 202.815 19.6168C203.494 18.8993 204.315 18.3332 205.228 17.9557C206.14 17.5782 207.12 17.3979 208.108 17.4266C209.463 17.4266 211.012 17.9106 211.254 18.7333V18.8785C211.412 19.4409 211.75 19.9362 212.217 20.2884C212.681 20.641 213.251 20.8314 213.835 20.8305H217.788V17.3621C217.788 12.7804 211.964 11.1188 208.108 11.1188C199.735 11.1188 193.589 16.9749 193.589 25.0088C193.589 33.0427 199.606 38.9149 207.882 38.9149C210.008 38.8927 212.107 38.4345 214.05 37.5688C215.991 36.703 217.737 35.4481 219.175 33.8816L216.174 28.6063L215.674 29.058Z" fill="#32457A"/>
</g>
<path d="M339.367 32.1653C338.765 33.0687 338.028 33.9219 337.159 34.725C336.322 35.528 335.336 36.2307 334.198 36.8329C333.093 37.4352 331.855 37.9038 330.484 38.2383C329.145 38.6064 327.673 38.7903 326.067 38.7903C323.391 38.7903 320.913 38.322 318.639 37.385C316.364 36.4483 314.407 35.16 312.767 33.5204C311.126 31.8475 309.839 29.8734 308.902 27.598C307.999 25.3228 307.547 22.83 307.547 20.1198C307.547 17.4096 308.015 14.9168 308.952 12.6415C309.89 10.3663 311.177 8.40885 312.817 6.76933C314.489 5.09635 316.447 3.79141 318.689 2.85453C320.964 1.91766 323.423 1.44922 326.067 1.44922C327.372 1.44922 328.643 1.58306 329.881 1.85073C331.152 2.11841 332.341 2.5032 333.445 3.0051C334.549 3.47353 335.553 4.05909 336.456 4.76174C337.36 5.43093 338.112 6.20052 338.715 7.07047L335.703 9.27882C335.336 8.71001 334.834 8.14118 334.198 7.57237C333.595 7.00354 332.877 6.50166 332.039 6.06668C331.202 5.63169 330.283 5.28036 329.279 5.01269C328.309 4.745 327.255 4.61117 326.117 4.61117C323.808 4.61117 321.734 5.02942 319.894 5.86592C318.087 6.70242 316.547 7.84004 315.276 9.27882C314.005 10.6841 313.034 12.3237 312.365 14.1974C311.696 16.0712 311.361 18.0453 311.361 20.1198C311.361 22.1944 311.696 24.1685 312.365 26.0422C313.068 27.916 314.055 29.5723 315.326 31.0109C316.597 32.4162 318.137 33.5373 319.944 34.3736C321.785 35.2102 323.842 35.6284 326.117 35.6284C328.159 35.6284 330.098 35.2102 331.939 34.3736C333.78 33.5373 335.318 32.1988 336.557 30.3585L339.367 32.1653Z" fill="#32457A"/>
<path d="M359.297 22.7345C359.297 20.6936 358.761 19.171 357.691 18.1673C356.621 17.1635 355.065 16.6616 353.023 16.6616C351.618 16.6616 350.313 16.9125 349.108 17.4144C347.904 17.9163 346.884 18.5856 346.047 19.422L344.14 17.1635C345.109 16.1931 346.382 15.3901 347.954 14.7544C349.56 14.1186 351.367 13.8008 353.375 13.8008C354.645 13.8008 355.834 13.9848 356.938 14.3529C358.042 14.6875 359.012 15.2061 359.849 15.9087C360.686 16.6114 361.339 17.4981 361.806 18.5688C362.274 19.6396 362.509 20.8943 362.509 22.333V32.6219C362.509 33.5253 362.543 34.4622 362.61 35.4325C362.676 36.403 362.776 37.2227 362.911 37.8918H359.849C359.749 37.3231 359.664 36.7041 359.598 36.0348C359.532 35.3657 359.498 34.7132 359.498 34.0774H359.397C358.327 35.6501 357.105 36.7876 355.734 37.4903C354.395 38.1596 352.772 38.4941 350.865 38.4941C349.962 38.4941 349.024 38.3604 348.054 38.0926C347.117 37.8585 346.248 37.457 345.445 36.888C344.676 36.3193 344.023 35.5831 343.487 34.6797C342.985 33.7763 342.734 32.6721 342.734 31.3672C342.734 29.5603 343.186 28.1383 344.089 27.101C345.027 26.0304 346.264 25.244 347.804 24.7421C349.343 24.2069 351.1 23.8722 353.073 23.7383C355.081 23.5711 357.155 23.4874 359.297 23.4874V22.7345ZM358.293 26.1474C356.888 26.1474 355.466 26.2145 354.027 26.3482C352.622 26.4486 351.333 26.6828 350.162 27.0508C349.024 27.3855 348.089 27.8874 347.352 28.5565C346.615 29.2258 346.248 30.1124 346.248 31.2166C346.248 32.0531 346.398 32.7558 346.699 33.3246C347.035 33.8935 347.468 34.3619 348.004 34.7299C348.54 35.0645 349.125 35.3155 349.761 35.4827C350.43 35.6166 351.1 35.6835 351.769 35.6835C352.973 35.6835 354.043 35.4827 354.981 35.0812C355.918 34.6463 356.703 34.0774 357.34 33.3747C357.976 32.6387 358.46 31.8022 358.795 30.8653C359.13 29.9285 359.297 28.9414 359.297 27.9041V26.1474H358.293Z" fill="#32457A"/>
<path d="M371.302 19.5726C371.302 18.9369 371.286 18.1171 371.252 17.1133C371.218 16.1095 371.168 15.2061 371.102 14.4031H374.364C374.43 15.0388 374.48 15.7414 374.514 16.511C374.549 17.2806 374.565 17.9163 374.565 18.4182H374.665C375.334 17.0464 376.337 15.9422 377.676 15.1057C379.015 14.2358 380.521 13.8008 382.193 13.8008C382.629 13.8008 383.013 13.8175 383.348 13.851C383.715 13.8844 384.085 13.9514 384.452 14.0517L384 17.2639C383.8 17.197 383.464 17.13 382.997 17.0631C382.529 16.9962 382.059 16.9627 381.591 16.9627C380.688 16.9627 379.818 17.13 378.981 17.4646C378.144 17.7992 377.409 18.3347 376.773 19.0707C376.171 19.7733 375.669 20.6936 375.267 21.8311C374.9 22.9353 374.715 24.2737 374.715 25.8463V37.8918H371.302V19.5726Z" fill="#32457A"/>
<path d="M406.429 24.3406C406.328 22.1322 405.608 20.3087 404.271 18.8699C402.966 17.3977 401.091 16.6616 398.649 16.6616C397.511 16.6616 396.457 16.8791 395.487 17.3141C394.516 17.7156 393.663 18.2845 392.928 19.0205C392.191 19.7231 391.605 20.543 391.171 21.4798C390.736 22.3832 390.485 23.3368 390.418 24.3406H406.429ZM409.892 25.4448C409.892 25.679 409.892 25.93 409.892 26.1976C409.892 26.4654 409.874 26.7497 409.842 27.0508H390.368C390.4 28.222 390.635 29.3262 391.071 30.3634C391.505 31.4007 392.107 32.3041 392.878 33.0736C393.647 33.8433 394.55 34.4622 395.588 34.9306C396.624 35.3657 397.746 35.5831 398.951 35.5831C400.723 35.5831 402.245 35.1816 403.518 34.3785C404.823 33.5422 405.809 32.5886 406.479 31.5177L409.039 33.5253C407.633 35.2988 406.078 36.5702 404.371 37.3397C402.697 38.1094 400.89 38.4941 398.951 38.4941C397.21 38.4941 395.588 38.193 394.082 37.5907C392.609 36.9551 391.338 36.085 390.268 34.9808C389.196 33.8766 388.343 32.5717 387.708 31.066C387.106 29.5603 386.805 27.9209 386.805 26.1474C386.805 24.3741 387.106 22.7345 387.708 21.2288C388.31 19.7231 389.146 18.4182 390.218 17.3141C391.288 16.2099 392.542 15.3567 393.982 14.7544C395.419 14.1186 396.975 13.8008 398.649 13.8008C400.489 13.8008 402.113 14.1186 403.518 14.7544C404.923 15.3567 406.094 16.1932 407.031 17.2639C407.967 18.3012 408.669 19.5224 409.139 20.9277C409.641 22.333 409.892 23.8387 409.892 25.4448Z" fill="#32457A"/>
<path d="M435.148 24.3406C435.047 22.1322 434.328 20.3087 432.989 18.8699C431.685 17.3977 429.811 16.6616 427.368 16.6616C426.23 16.6616 425.176 16.8791 424.206 17.3141C423.237 17.7156 422.383 18.2845 421.647 19.0205C420.91 19.7231 420.326 20.543 419.89 21.4798C419.454 22.3832 419.203 23.3368 419.137 24.3406H435.148ZM438.611 25.4448C438.611 25.679 438.611 25.93 438.611 26.1976C438.611 26.4654 438.595 26.7497 438.561 27.0508H419.087C419.121 28.222 419.354 29.3262 419.79 30.3634C420.225 31.4007 420.827 32.3041 421.596 33.0736C422.365 33.8433 423.269 34.4622 424.307 34.9306C425.344 35.3657 426.465 35.5831 427.669 35.5831C429.442 35.5831 430.966 35.1816 432.237 34.3785C433.542 33.5422 434.529 32.5886 435.198 31.5177L437.758 33.5253C436.352 35.2988 434.796 36.5702 433.09 37.3397C431.417 38.1094 429.611 38.4941 427.669 38.4941C425.929 38.4941 424.307 38.193 422.801 37.5907C421.329 36.9551 420.057 36.085 418.987 34.9808C417.916 33.8766 417.063 32.5717 416.427 31.066C415.825 29.5603 415.523 27.9209 415.523 26.1474C415.523 24.3741 415.825 22.7345 416.427 21.2288C417.029 19.7231 417.866 18.4182 418.936 17.3141C420.006 16.2099 421.261 15.3567 422.701 14.7544C424.14 14.1186 425.696 13.8008 427.368 13.8008C429.209 13.8008 430.831 14.1186 432.237 14.7544C433.642 15.3567 434.812 16.1932 435.75 17.2639C436.687 18.3012 437.39 19.5224 437.858 20.9277C438.36 22.333 438.611 23.8387 438.611 25.4448Z" fill="#32457A"/>
<path d="M445.951 19.5726C445.951 18.9369 445.933 18.1171 445.901 17.1133C445.867 16.1095 445.816 15.2061 445.75 14.4031H449.012C449.079 15.0388 449.129 15.7414 449.163 16.511C449.195 17.2806 449.213 17.9163 449.213 18.4182H449.313C449.982 17.0464 450.986 15.9422 452.325 15.1057C453.662 14.2358 455.168 13.8008 456.842 13.8008C457.276 13.8008 457.661 13.8175 457.996 13.851C458.364 13.8844 458.731 13.9514 459.1 14.0517L458.649 17.2639C458.448 17.197 458.113 17.13 457.645 17.0631C457.175 16.9962 456.708 16.9627 456.24 16.9627C455.336 16.9627 454.465 17.13 453.63 17.4646C452.793 17.7992 452.056 18.3347 451.421 19.0707C450.819 19.7733 450.317 20.6936 449.916 21.8311C449.547 22.9353 449.364 24.2737 449.364 25.8463V37.8918H445.951V19.5726Z" fill="#32457A"/>
<path d="M476.537 19.9741C476.035 19.0038 475.266 18.2174 474.228 17.6152C473.224 16.9795 472.07 16.6616 470.765 16.6616C470.163 16.6616 469.56 16.7285 468.958 16.8624C468.356 16.9962 467.822 17.2137 467.352 17.5148C466.884 17.816 466.499 18.2008 466.198 18.6691C465.931 19.1377 465.796 19.6898 465.796 20.3254C465.796 21.4296 466.248 22.2828 467.151 22.8851C468.055 23.454 469.478 23.9391 471.417 24.3406C474.196 24.9095 476.236 25.7459 477.541 26.8501C478.88 27.9209 479.548 29.3764 479.548 31.2166C479.548 32.555 479.281 33.6927 478.745 34.6295C478.243 35.5329 477.575 36.2857 476.738 36.888C475.902 37.457 474.949 37.8585 473.877 38.0926C472.841 38.3604 471.787 38.4941 470.715 38.4941C468.942 38.4941 467.219 38.1261 465.545 37.3899C463.873 36.6539 462.502 35.4996 461.43 33.9268L464.14 31.9192C464.742 32.9566 465.629 33.8264 466.8 34.5291C467.972 35.2318 469.259 35.5831 470.665 35.5831C471.401 35.5831 472.104 35.5162 472.773 35.3823C473.443 35.2486 474.027 35.0143 474.529 34.6797C475.031 34.3452 475.433 33.9268 475.734 33.4249C476.035 32.8897 476.185 32.2372 476.185 31.4675C476.185 30.2296 475.583 29.3094 474.379 28.7071C473.208 28.0715 471.502 27.4859 469.259 26.9505C468.557 26.7832 467.804 26.5825 467.001 26.3482C466.232 26.0806 465.513 25.7126 464.843 25.244C464.174 24.7421 463.622 24.1232 463.186 23.387C462.753 22.651 462.534 21.7307 462.534 20.6265C462.534 19.422 462.769 18.4015 463.237 17.565C463.706 16.6951 464.325 15.9924 465.094 15.457C465.897 14.8882 466.8 14.47 467.804 14.2023C468.808 13.9346 469.845 13.8008 470.916 13.8008C472.556 13.8008 474.146 14.1688 475.684 14.905C477.223 15.6411 478.378 16.6783 479.147 18.0167L476.537 19.9741Z" fill="#32457A"/>
</g>
<defs>
<clipPath id="clip0_806_93">
<rect width="480.387" height="48.3972" fill="white" transform="translate(0 0.246094)"/>
</clipPath>
</defs>
</svg>
