<svg width="255" height="54" viewBox="0 0 255 54" fill="none" xmlns="http://www.w3.org/2000/svg">
<g clip-path="url(#clip0_806_66)">
<path d="M84.4488 17.8353H88.3009V35.6685H84.4488V33.102C82.9844 35.1365 80.9171 36.1347 78.2094 36.1347C75.7465 36.1347 73.6792 35.2447 71.9322 33.4223C70.1851 31.6045 69.3281 29.3537 69.3281 26.7542C69.3281 24.155 70.1851 21.9039 71.9322 20.0815C73.6792 18.2639 75.7513 17.3691 78.2094 17.3691C80.9218 17.3691 82.989 18.3675 84.4488 20.364V17.8306V17.8353ZM78.8168 32.4569C80.4226 32.4569 81.7788 31.92 82.8478 30.8512C83.9167 29.7445 84.4535 28.3883 84.4535 26.7496C84.4535 25.1109 83.9215 23.7547 82.8478 22.681C81.7741 21.5743 80.4226 21.0421 78.8168 21.0421C77.2111 21.0421 75.8548 21.579 74.7859 22.681C73.7169 23.7499 73.1802 25.1061 73.1802 26.7496C73.1802 28.3929 73.7122 29.7445 74.7859 30.8512C75.8548 31.92 77.2111 32.4569 78.8168 32.4569Z" fill="#32457A"/>
<path d="M99.296 25.0724C102.041 25.6799 105.611 26.8194 105.535 30.6385C105.535 32.3526 104.857 33.704 103.539 34.6694C102.22 35.6347 100.577 36.1339 98.5802 36.1339C95.0483 36.1339 92.4444 34.5658 91.3047 31.9617L94.6199 30.0356C95.2274 31.7498 96.5459 32.6021 98.5802 32.6021C100.615 32.6021 101.613 31.924 101.613 30.6055C101.613 29.4658 100.115 28.7877 98.2223 28.3217C95.5475 27.6436 91.9451 26.5745 92.0158 22.8309C92.0158 21.192 92.6232 19.8688 93.8712 18.8706C95.1189 17.8722 96.6872 17.373 98.5426 17.373C101.504 17.373 103.892 18.7621 105.14 21.0838L101.895 22.9015C101.288 21.5453 100.148 20.8672 98.5426 20.8672C97.0779 20.8672 95.9385 21.5075 95.9385 22.7554C95.9385 23.9328 97.4359 24.5402 99.2913 25.0724" fill="#32457A"/>
<path d="M118.712 21.541H114.29V30.1021C114.29 32.3859 115.788 32.3483 118.712 32.207V35.6681C112.826 36.3792 110.438 34.7782 110.438 30.1021V21.541H107.156V17.8303H110.438V13.9783L114.29 12.834V17.8256H118.712V21.5363V21.541Z" fill="#32457A"/>
<path d="M135.535 17.8353H139.387V35.6685H135.535V33.102C134.075 35.1365 132.003 36.1347 129.295 36.1347C126.832 36.1347 124.765 35.2447 123.018 33.4223C121.271 31.6045 120.414 29.3537 120.414 26.7542C120.414 24.155 121.271 21.9039 123.018 20.0815C124.765 18.2639 126.837 17.3691 129.295 17.3691C132.008 17.3691 134.075 18.3675 135.535 20.364V17.8306V17.8353ZM129.903 32.4569C131.509 32.4569 132.865 31.92 133.934 30.8512C135.003 29.7445 135.539 28.3883 135.539 26.7496C135.539 25.1109 135.003 23.7547 133.934 22.681C132.865 21.5743 131.509 21.0421 129.903 21.0421C128.297 21.0421 126.941 21.579 125.872 22.681C124.803 23.7499 124.266 25.1061 124.266 26.7496C124.266 28.3929 124.798 29.7445 125.872 30.8512C126.941 31.92 128.297 32.4569 129.903 32.4569Z" fill="#32457A"/>
<path d="M159.844 24.7191V35.6677H155.993V25.1101C155.993 22.4353 154.457 20.9708 151.999 20.9708C149.287 20.9708 147.469 22.6472 147.469 26.1083V35.6677H143.617V17.8345H147.469V20.1185C148.646 18.3008 150.464 17.373 152.997 17.373C157.099 17.373 159.844 20.1562 159.844 24.7191Z" fill="#32457A"/>
<path d="M177.933 17.8353H181.785V35.6685H177.933V33.102C176.473 35.1365 174.401 36.1347 171.694 36.1347C169.231 36.1347 167.164 35.2447 165.417 33.4223C163.669 31.6045 162.812 29.3537 162.812 26.7542C162.812 24.155 163.669 21.9039 165.417 20.0815C167.164 18.2639 169.236 17.3691 171.694 17.3691C174.406 17.3691 176.473 18.3675 177.933 20.364V17.8306V17.8353ZM172.297 32.4569C173.902 32.4569 175.258 31.92 176.327 30.8512C177.396 29.7445 177.933 28.3883 177.933 26.7496C177.933 25.1109 177.396 23.7547 176.327 22.681C175.258 21.5743 173.902 21.0421 172.297 21.0421C170.691 21.0421 169.334 21.579 168.266 22.681C167.197 23.7499 166.66 25.1061 166.66 26.7496C166.66 28.3929 167.192 29.7445 168.266 30.8512C169.334 31.92 170.691 32.4569 172.297 32.4569Z" fill="#32457A"/>
<path d="M211.423 24.7161V35.6646H207.571V25.107C207.571 22.4323 206.036 20.9676 203.577 20.9676C200.865 20.9676 199.047 22.6441 199.047 26.1053V35.6646H195.195V10.6973H199.047V20.1153C200.225 18.2977 202.043 17.37 204.575 17.37C208.677 17.37 211.423 20.1531 211.423 24.7161Z" fill="#32457A"/>
<path d="M227.485 17.8379H231.337V35.671H227.485V33.3872C226.307 35.2048 224.489 36.1326 221.957 36.1326C217.855 36.1326 215.109 33.3496 215.109 28.7864V17.8379H218.961V28.3957C218.961 31.0702 220.496 32.5349 222.955 32.5349C225.667 32.5349 227.485 30.8584 227.485 27.3972V17.8379Z" fill="#32457A"/>
<path d="M251.924 20.0777C253.671 21.8954 254.528 24.1086 254.528 26.7504C254.528 29.3921 253.671 31.6007 251.924 33.4184C250.178 35.236 248.109 36.1308 245.646 36.1308C242.934 36.1308 240.868 35.1326 239.407 33.0981V35.6646H235.555V10.6973H239.407V20.3601C240.868 18.3637 242.94 17.3653 245.646 17.3653C248.109 17.3653 250.178 18.2552 251.924 20.0777ZM245.039 32.453C246.645 32.453 248.002 31.9162 249.07 30.8473C250.14 29.7406 250.676 28.3844 250.676 26.7457C250.676 25.107 250.144 23.7508 249.07 22.6771C248.002 21.5704 246.645 21.0382 245.039 21.0382C243.434 21.0382 242.078 21.5751 241.009 22.6771C239.939 23.746 239.403 25.1022 239.403 26.7457C239.403 28.3891 239.936 29.7406 241.009 30.8473C242.078 31.9162 243.434 32.453 245.039 32.453Z" fill="#32457A"/>
<mask id="mask0_806_66" style="mask-type:luminance" maskUnits="userSpaceOnUse" x="0" y="0" width="52" height="54">
<path d="M25.7588 27.595H25.4668C25.4431 27.595 25.4197 27.595 25.3962 27.595H25.2738C25.2738 27.595 25.2361 27.595 25.222 27.595H25.156C25.156 27.595 25.1183 27.595 25.1042 27.595H25.0336C25.0336 27.595 25.0006 27.595 24.9818 27.595C24.9534 27.595 24.9253 27.595 24.897 27.595H24.864C24.8357 27.595 24.8029 27.595 24.7699 27.595C24.7604 27.595 24.7462 27.595 24.7369 27.595C24.6944 27.595 24.6568 27.595 24.6191 27.595C24.6096 27.595 24.605 27.595 24.6003 27.595C24.5673 27.595 24.5297 27.595 24.4967 27.595C24.4872 27.595 24.4826 27.595 24.4732 27.595C24.4402 27.595 24.4073 27.595 24.3743 27.595C24.3648 27.595 24.3508 27.595 24.3413 27.595C24.313 27.595 24.2848 27.595 24.2565 27.595H24.2094C24.1812 27.595 24.1576 27.595 24.1341 27.595C24.1199 27.595 24.1058 27.595 24.0869 27.595C24.0635 27.595 24.0351 27.595 24.007 27.595C23.9928 27.595 23.9787 27.595 23.9694 27.595C23.941 27.595 23.9127 27.595 23.8797 27.595C23.8704 27.595 23.8563 27.595 23.8469 27.595C23.8186 27.595 23.7856 27.595 23.7573 27.595C23.748 27.595 23.7385 27.595 23.7245 27.595C23.6444 27.595 23.5596 27.595 23.4797 27.5997H23.4655C23.4277 27.5997 23.3949 27.5997 23.357 27.5997C23.3477 27.5997 23.3382 27.5997 23.3336 27.5997C23.3006 27.5997 23.2676 27.5997 23.2346 27.5997C23.2253 27.5997 23.2206 27.5997 23.2111 27.5997C23.1782 27.5997 23.1405 27.5997 23.1075 27.5997C23.1075 27.5997 23.1029 27.5997 23.098 27.5997C23.0604 27.5997 23.0227 27.5997 22.9851 27.5997H22.9756C22.938 27.5997 22.9003 27.5997 22.858 27.5997H22.8532C22.8155 27.5997 22.7779 27.5997 22.7403 27.5997H22.7307C22.566 27.6043 22.4011 27.6092 22.2364 27.6185H22.2317C22.1939 27.6185 22.1516 27.6185 22.114 27.6233H22.1093C22.0715 27.6233 22.0338 27.6233 21.9962 27.6233C21.9915 27.6233 21.9869 27.6233 21.9774 27.6233C21.9397 27.6233 21.9067 27.6233 21.8691 27.6233C21.8691 27.6233 21.8596 27.6233 21.8549 27.6233C21.8173 27.6233 21.7797 27.6234 21.742 27.628H21.7325C21.4877 27.6373 21.2428 27.6515 21.0026 27.661H20.9884C20.9085 27.661 20.833 27.6703 20.7531 27.6752H20.7483C13.0443 28.0801 6.27269 29.4033 1.50243 31.2868C0.372262 31.7437 -0.230495 32.9868 0.0897205 34.1595C1.33762 38.4541 3.63562 42.306 6.6918 45.414C6.72005 45.4423 6.74831 45.4706 6.77656 45.5034C6.77656 45.5034 6.77656 45.5034 6.78128 45.5083C6.80953 45.5364 6.83778 45.5647 6.86603 45.5977C6.95551 45.6872 7.04969 45.7766 7.13917 45.8661C7.16742 45.8944 7.19567 45.9227 7.22392 45.9508C7.23334 45.9555 7.23806 45.965 7.24277 45.9697C7.26631 45.9933 7.28984 46.0122 7.30868 46.0356C7.31809 46.0451 7.32752 46.0498 7.33224 46.0591C7.35107 46.0779 7.37463 46.0969 7.39345 46.1204C7.40288 46.1297 7.41229 46.1392 7.42172 46.1487C7.44054 46.1676 7.46409 46.1864 7.48293 46.2052C7.49234 46.2145 7.50177 46.224 7.51118 46.2333C7.53473 46.2522 7.55355 46.2758 7.57711 46.2946C7.58652 46.304 7.59595 46.3088 7.60066 46.3181C7.62891 46.3464 7.66186 46.3748 7.69011 46.4029C12.4462 50.7588 18.7799 53.4148 25.7351 53.4148C32.6904 53.4148 39.0241 50.7588 43.7803 46.4029C43.8085 46.3748 43.8414 46.3464 43.8698 46.3181C43.8791 46.3088 43.8886 46.304 43.8933 46.2946C43.9167 46.2758 43.9357 46.257 43.9592 46.2333C43.9685 46.224 43.978 46.2145 43.9875 46.2052C44.0064 46.1864 44.0298 46.1676 44.0487 46.1487C44.0582 46.1392 44.0675 46.1297 44.077 46.1204C44.0958 46.1016 44.1193 46.0828 44.1381 46.064C44.1476 46.0545 44.1569 46.0451 44.1664 46.0403C44.1899 46.0168 44.2136 45.998 44.2324 45.9745C44.2417 45.9697 44.2464 45.9603 44.2512 45.9555C44.2794 45.9274 44.3077 45.899 44.336 45.8709C44.4301 45.7813 44.5195 45.6918 44.609 45.6024C44.6373 45.5741 44.6656 45.5459 44.6986 45.5129C44.7268 45.4846 44.7551 45.4516 44.7881 45.4235C47.8394 42.3155 50.1422 38.4634 51.3902 34.1688C51.7056 32.9963 51.1075 31.7484 49.9773 31.2963C45.2071 29.408 38.4355 28.0847 30.7315 27.6845C30.7315 27.6845 30.722 27.6845 30.7174 27.6845C30.6797 27.6845 30.6421 27.6845 30.6043 27.6798C30.5666 27.6798 30.529 27.6798 30.4913 27.6752C30.4867 27.6752 30.4772 27.6752 30.4725 27.6752C30.4349 27.6752 30.3972 27.6752 30.3594 27.6703C30.3218 27.6703 30.2795 27.6703 30.2418 27.6657C30.0769 27.6562 29.9168 27.6515 29.7519 27.6422H29.738C29.7001 27.6422 29.6673 27.6422 29.6295 27.6373C29.6248 27.6373 29.6202 27.6373 29.6107 27.6373C29.5777 27.6373 29.5401 27.6373 29.5071 27.6373C29.5024 27.6373 29.4929 27.6373 29.4883 27.6373C29.4506 27.6373 29.4176 27.6373 29.38 27.6373H29.3705C29.3328 27.6373 29.2905 27.6373 29.2529 27.6327H29.2481C29.0833 27.628 28.9184 27.6185 28.7537 27.6139C28.749 27.6139 28.7442 27.6139 28.7395 27.6139C28.7019 27.6139 28.6643 27.6139 28.6266 27.6139C28.6266 27.6139 28.6218 27.6139 28.6171 27.6139C28.5795 27.6139 28.5418 27.6139 28.5042 27.6139H28.49C28.4524 27.6139 28.4146 27.6139 28.3769 27.6139C28.3769 27.6139 28.3676 27.6139 28.3628 27.6139C28.33 27.6139 28.2921 27.6139 28.2593 27.6139C28.2498 27.6139 28.2403 27.6139 28.2357 27.6139C28.2027 27.6139 28.1745 27.6139 28.1367 27.6139C28.1274 27.6139 28.1179 27.6139 28.1086 27.6139C28.0709 27.6139 28.038 27.6139 28.0003 27.6139C28.0003 27.6139 27.9908 27.6139 27.9862 27.6139C27.906 27.6139 27.8212 27.6139 27.7413 27.6092C27.7318 27.6092 27.7176 27.6092 27.7083 27.6092C27.68 27.6092 27.6519 27.6092 27.6189 27.6092C27.6094 27.6092 27.5952 27.6092 27.5859 27.6092C27.5576 27.6092 27.5294 27.6092 27.4964 27.6092C27.4823 27.6092 27.4681 27.6092 27.454 27.6092C27.4305 27.6092 27.4022 27.6092 27.3787 27.6092C27.3645 27.6092 27.3504 27.6092 27.3315 27.6092C27.3081 27.6092 27.2797 27.6092 27.2563 27.6092H27.2091C27.1808 27.6092 27.1526 27.6092 27.1243 27.6092C27.115 27.6092 27.1008 27.6092 27.0913 27.6092C27.0584 27.6092 27.0256 27.6092 26.9926 27.6092C26.9831 27.6092 26.9784 27.6092 26.9689 27.6092C26.9359 27.6092 26.903 27.6092 26.8653 27.6092C26.8606 27.6092 26.8511 27.6092 26.8418 27.6092C26.8042 27.6092 26.7617 27.6092 26.7241 27.6092C26.7099 27.6092 26.7006 27.6092 26.6911 27.6092C26.6581 27.6092 26.63 27.6092 26.597 27.6092H26.564C26.5357 27.6092 26.5075 27.6092 26.4792 27.6092C26.4604 27.6092 26.4462 27.6092 26.4274 27.6092H26.3568C26.3568 27.6092 26.3191 27.6092 26.305 27.6092H26.239C26.239 27.6092 26.2014 27.6092 26.1872 27.6092H26.0648C26.0413 27.6092 26.0178 27.6092 25.9942 27.6092H25.7022M7.71368 7.02118C7.68541 7.04943 7.65716 7.07299 7.6242 7.10124C7.61007 7.11536 7.59595 7.12479 7.58182 7.13892C7.5677 7.15304 7.54886 7.16716 7.53471 7.18129C7.52059 7.19541 7.50175 7.20956 7.48763 7.22368C7.4735 7.23781 7.45938 7.24722 7.44997 7.26134C7.43113 7.27549 7.41698 7.29431 7.39816 7.30843C7.38402 7.31786 7.37463 7.32727 7.3652 7.3414C7.34636 7.36023 7.32752 7.37907 7.30868 7.3932C7.29927 7.40263 7.28984 7.41204 7.28043 7.42146C7.26159 7.44029 7.23804 7.45913 7.2192 7.47796C7.21451 7.48268 7.20979 7.48737 7.20508 7.49209C7.07324 7.61923 6.9461 7.74637 6.81896 7.87353C6.79071 7.89707 6.76715 7.92532 6.73889 7.95358C5.31205 9.39926 4.05002 11.005 2.98107 12.738C2.98107 12.738 2.98107 12.738 2.98107 12.7427C2.96223 12.7709 2.94811 12.7992 2.92927 12.8274C2.92927 12.8322 2.91986 12.8416 2.91986 12.8463C2.90102 12.8745 2.8869 12.8981 2.87277 12.9263C2.86806 12.9358 2.86336 12.9405 2.85865 12.9499C2.84452 12.9781 2.82568 13.0017 2.81156 13.0299C2.80684 13.0393 2.80213 13.0441 2.79741 13.0535C2.78329 13.0817 2.76445 13.1053 2.75033 13.1335C2.75033 13.1335 2.74563 13.143 2.74091 13.1477C2.68911 13.2324 2.64202 13.3172 2.59022 13.4019C2.58551 13.4114 2.5761 13.4255 2.57138 13.4349C2.55726 13.4538 2.54785 13.4773 2.53372 13.4961C2.52429 13.5103 2.51486 13.5244 2.51017 13.5432C2.50074 13.5621 2.48663 13.5809 2.4772 13.5997C2.46779 13.6186 2.45838 13.6327 2.44895 13.6515C2.43954 13.6704 2.43011 13.6892 2.4207 13.7033C2.41129 13.7174 2.40187 13.741 2.38774 13.7598C2.37831 13.774 2.3689 13.7928 2.35949 13.8069C2.34537 13.8305 2.33594 13.8493 2.32181 13.8729C2.31238 13.887 2.30769 13.9011 2.29826 13.9152C2.28413 13.9435 2.27001 13.9717 2.25588 13.9953C2.25117 14.0047 2.24647 14.0141 2.24176 14.0188C2.22292 14.0565 2.20408 14.0942 2.18055 14.1271C2.18055 14.1271 2.18053 14.1366 2.17583 14.1366C2.15699 14.1695 2.13815 14.2025 2.12403 14.2354C2.12403 14.2449 2.11462 14.2543 2.1099 14.259C2.09578 14.2872 2.07694 14.3155 2.06282 14.3485C2.06282 14.3579 2.05339 14.3673 2.04869 14.372C2.03457 14.4003 2.02042 14.4285 2.00158 14.4615C2.00158 14.4709 1.99217 14.4803 1.98746 14.485C1.97333 14.518 1.9545 14.5462 1.94037 14.5792C1.94037 14.5839 1.93567 14.5933 1.93096 14.598C1.17751 16.072 0.560625 17.626 0.0897205 19.2411C-0.239912 20.4184 0.362845 21.6757 1.50243 22.1326C6.50344 24.1102 13.6942 25.4664 21.8549 25.7961H21.8596C21.8972 25.7961 21.9351 25.7961 21.9727 25.8009C21.9774 25.8009 21.9869 25.8009 21.9915 25.8009C22.0245 25.8009 22.0575 25.8009 22.0905 25.8009C22.0998 25.8009 22.1093 25.8009 22.1186 25.8009C22.1516 25.8009 22.1846 25.8009 22.2176 25.8009H22.2317C22.2694 25.8009 22.3023 25.8009 22.34 25.8009C22.3446 25.8009 22.3493 25.8009 22.3541 25.8009C22.5189 25.8056 22.6789 25.8102 22.8439 25.8149C22.8439 25.8149 22.8532 25.8149 22.858 25.8149C22.8957 25.8149 22.9286 25.8149 22.9663 25.8149H22.9898C23.0227 25.8149 23.0557 25.8149 23.0887 25.8149C23.0982 25.8149 23.1075 25.8149 23.117 25.8149C23.1498 25.8149 23.1828 25.8149 23.2206 25.8149C23.2253 25.8149 23.23 25.8149 23.2346 25.8149C23.2724 25.8149 23.3052 25.8149 23.3431 25.8149C23.3477 25.8149 23.357 25.8149 23.3619 25.8149C23.3995 25.8149 23.4372 25.8149 23.4748 25.8149H23.4843C23.6067 25.8149 23.7292 25.8197 23.8516 25.8244H23.8846C23.9127 25.8244 23.9364 25.8244 23.9645 25.8244C23.9787 25.8244 23.9975 25.8244 24.0117 25.8244C24.0351 25.8244 24.0635 25.8244 24.0869 25.8244C24.1011 25.8244 24.1153 25.8244 24.1294 25.8244C24.1576 25.8244 24.1812 25.8244 24.2094 25.8244H24.2472C24.2753 25.8244 24.299 25.8244 24.3271 25.8244C24.3413 25.8244 24.3601 25.8244 24.3743 25.8244C24.3978 25.8244 24.4214 25.8244 24.4449 25.8244C24.4591 25.8244 24.4732 25.8244 24.4921 25.8244C24.5202 25.8244 24.5485 25.8244 24.5768 25.8244C24.5908 25.8244 24.605 25.8244 24.6145 25.8244C24.6944 25.8244 24.7699 25.8244 24.8498 25.8244H24.9065C24.93 25.8244 24.9534 25.8244 24.9771 25.8244C24.9911 25.8244 25.0101 25.8244 25.0241 25.8244H25.0995C25.0995 25.8244 25.1325 25.8244 25.1465 25.8244H25.222C25.222 25.8244 25.2549 25.8244 25.2689 25.8244H25.3915C25.4197 25.8244 25.4431 25.8244 25.4668 25.8244H26.0413C26.0694 25.8244 26.0931 25.8244 26.1166 25.8244H26.239C26.239 25.8244 26.272 25.8244 26.2862 25.8244H26.3614C26.3614 25.8244 26.3944 25.8244 26.4086 25.8244H26.4839C26.4839 25.8244 26.5122 25.8244 26.531 25.8244C26.5545 25.8244 26.5782 25.8244 26.6016 25.8244H26.6581C26.7382 25.8244 26.8135 25.8244 26.8936 25.8244C26.9078 25.8244 26.922 25.8244 26.9313 25.8244C26.9596 25.8244 26.9877 25.8244 27.0161 25.8244C27.0302 25.8244 27.049 25.8244 27.0632 25.8244C27.0867 25.8244 27.1102 25.8244 27.1338 25.8244C27.1526 25.8244 27.1668 25.8244 27.1856 25.8244C27.2138 25.8244 27.2374 25.8244 27.2609 25.8244H27.2986C27.3269 25.8244 27.3504 25.8244 27.3787 25.8244C27.3928 25.8244 27.4068 25.8244 27.421 25.8244C27.4493 25.8244 27.4728 25.8244 27.4964 25.8244C27.5153 25.8244 27.5292 25.8244 27.5434 25.8244C27.5717 25.8244 27.5952 25.8244 27.6235 25.8244H27.6612C27.7836 25.8244 27.906 25.8197 28.0285 25.8149H28.038C28.0756 25.8149 28.1132 25.8149 28.1509 25.8149C28.1557 25.8149 28.165 25.8149 28.1697 25.8149C28.2027 25.8149 28.2403 25.8149 28.2733 25.8149C28.2781 25.8149 28.2875 25.8149 28.2921 25.8149C28.3251 25.8149 28.3581 25.8149 28.3911 25.8149C28.4006 25.8149 28.4099 25.8149 28.4194 25.8149C28.4524 25.8149 28.4805 25.8149 28.5135 25.8149H28.5372C28.5748 25.8149 28.6078 25.8149 28.6454 25.8149C28.6501 25.8149 28.6548 25.8149 28.6596 25.8149C28.8243 25.8102 28.9844 25.8056 29.1493 25.8009C29.154 25.8009 29.1635 25.8009 29.1681 25.8009C29.2011 25.8009 29.2387 25.8009 29.2764 25.8009H29.2952C29.3282 25.8009 29.3612 25.8009 29.3942 25.8009C29.4035 25.8009 29.413 25.8009 29.4223 25.8009C29.4553 25.8009 29.4883 25.8009 29.5212 25.8009C29.5259 25.8009 29.5354 25.8009 29.5401 25.8009C29.5777 25.8009 29.6107 25.8009 29.6483 25.7961H29.6578C29.9027 25.7868 30.1475 25.7773 30.3924 25.7631C38.2471 25.3818 45.16 24.0491 50.0056 22.1326C51.1405 21.6757 51.7433 20.4231 51.4183 19.2411C50.9474 17.626 50.3258 16.072 49.5771 14.5933C49.5771 14.5933 49.5724 14.5839 49.5677 14.5792C49.5489 14.5462 49.5348 14.5133 49.5206 14.485C49.5206 14.4756 49.5111 14.4709 49.5064 14.4615C49.4923 14.4332 49.4783 14.405 49.4593 14.372C49.4546 14.3626 49.45 14.3532 49.4453 14.3438C49.4311 14.3108 49.4123 14.2825 49.3982 14.2496C49.3982 14.2449 49.3935 14.2355 49.3887 14.2307C49.351 14.1554 49.3087 14.08 49.2711 14.0094C49.2711 14.0094 49.2711 14.0047 49.2662 14C49.2474 13.967 49.2333 13.9341 49.2144 13.9058C49.2051 13.8917 49.2003 13.8775 49.191 13.8634C49.1768 13.8399 49.1675 13.821 49.1533 13.7975C49.1438 13.7834 49.1345 13.7645 49.125 13.7504C49.1157 13.7316 49.1015 13.7127 49.092 13.6939C49.0827 13.6751 49.0732 13.6562 49.0639 13.6421C49.0544 13.6233 49.045 13.6091 49.0355 13.595C49.0262 13.5762 49.0121 13.5573 49.0026 13.5385C48.9932 13.5244 48.9837 13.5103 48.9791 13.4961C48.9649 13.4726 48.9554 13.4538 48.9414 13.4302C48.9366 13.4208 48.9319 13.4114 48.9273 13.4019C48.8755 13.3172 48.8283 13.2277 48.7765 13.143C48.7765 13.1382 48.7672 13.1288 48.7672 13.1241C48.753 13.0959 48.7342 13.0723 48.7201 13.0441C48.7201 13.0346 48.7106 13.0299 48.7059 13.0252C48.6917 12.997 48.6729 12.9734 48.6588 12.9452C48.6541 12.9358 48.6494 12.931 48.6448 12.9216C48.6306 12.8934 48.6118 12.8698 48.5976 12.8416C48.5976 12.8369 48.593 12.8274 48.5881 12.8227C48.5693 12.7945 48.5552 12.7662 48.5363 12.738C48.5363 12.738 48.5363 12.7333 48.5317 12.7285C47.4628 10.9956 46.2007 9.38983 44.7786 7.94887C44.7786 7.94887 44.7786 7.94887 44.7739 7.94416C44.7502 7.92062 44.7221 7.89237 44.6986 7.86882C44.5713 7.73696 44.4396 7.60982 44.3077 7.48738C44.303 7.48268 44.2982 7.47796 44.2935 7.47325C44.2747 7.45441 44.2512 7.43559 44.2324 7.41204C44.2229 7.40263 44.2182 7.39791 44.2087 7.3885C44.1899 7.36966 44.1711 7.35082 44.1523 7.3367C44.1429 7.32727 44.1288 7.31786 44.1193 7.30373C44.1005 7.28961 44.0863 7.27077 44.0675 7.25665C44.0533 7.24252 44.044 7.23309 44.0298 7.21897C44.0157 7.20484 43.9969 7.19072 43.9827 7.17188C43.9685 7.15775 43.9497 7.14363 43.9357 7.1295C43.9216 7.11536 43.9074 7.10124 43.8933 7.09183C43.8649 7.06358 43.8368 7.04002 43.8038 7.01177C39.0476 2.6559 32.714 0 25.7588 0C18.8034 0 12.4651 2.6559 7.71368 7.01177" fill="white"/>
</mask>
<g mask="url(#mask0_806_66)">
<path d="M52.4884 26.7364C52.4884 41.4992 40.5226 53.465 25.7599 53.465C10.9969 53.465 -0.96875 41.4992 -0.96875 26.7364C-0.96875 11.9735 10.9969 0.0078125 25.7599 0.0078125C40.5226 0.0078125 52.4884 11.9735 52.4884 26.7364Z" fill="#32457A" fill-opacity="0.2"/>
<path d="M48.5113 26.7366C48.5113 39.3002 38.3257 49.4907 25.7619 49.4907C13.1982 49.4907 3.00781 39.305 3.00781 26.7366C3.00781 14.1681 13.1935 3.98242 25.7619 3.98242C38.3303 3.98242 48.5113 14.1681 48.5113 26.7366Z" fill="#32457A" fill-opacity="0.3"/>
<path d="M44.5421 26.7379C44.5421 37.1071 36.1364 45.5128 25.7672 45.5128C15.3978 45.5128 6.99219 37.1071 6.99219 26.7379C6.99219 16.3685 15.3978 7.96289 25.7672 7.96289C36.1364 7.96289 44.5421 16.3685 44.5421 26.7379Z" fill="#32457A" fill-opacity="0.4"/>
<path d="M40.5572 26.74C40.5572 34.9149 33.9317 41.5405 25.7615 41.5405C17.5913 41.5405 10.9609 34.9149 10.9609 26.74C10.9609 18.565 17.5866 11.9395 25.7615 11.9395C33.9363 11.9395 40.5572 18.565 40.5572 26.74Z" fill="#32457A" fill-opacity="0.7"/>
<path d="M36.5958 26.7394C36.5958 32.7152 31.7502 37.5607 25.7746 37.5607C19.7988 37.5607 14.9531 32.7152 14.9531 26.7394C14.9531 20.7636 19.7988 15.918 25.7746 15.918C31.7502 15.918 36.5958 20.7636 36.5958 26.7394Z" fill="#32457A"/>
</g>
</g>
<defs>
<clipPath id="clip0_806_66">
<rect width="254.534" height="53.7747" fill="white"/>
</clipPath>
</defs>
</svg>
