<svg width="180" height="55" viewBox="0 0 180 55" fill="none" xmlns="http://www.w3.org/2000/svg">
<g clip-path="url(#clip0_806_64)">
<path d="M171.982 54.5994C172.958 54.6004 173.925 54.4091 174.826 54.0366C175.728 53.664 176.548 53.1174 177.239 52.4281C177.93 51.7387 178.478 50.92 178.852 50.0188C179.227 49.1175 179.42 48.1514 179.421 47.1755C179.422 46.1996 179.231 45.233 178.858 44.331C178.486 43.4291 177.939 42.6093 177.25 41.9185C176.56 41.2278 175.742 40.6795 174.84 40.3052C173.939 39.9308 172.973 39.7376 171.997 39.7366C170.026 39.7347 168.135 40.5157 166.74 41.908C165.345 43.3002 164.56 45.1896 164.558 47.1605C164.556 49.1315 165.337 51.0224 166.729 52.4175C168.122 53.8125 170.011 54.5974 171.982 54.5994ZM164.543 26.9278H158.195C154.117 26.9278 151.921 29.99 151.921 35.0836V53.5015H139.896V26.9278H134.788C130.703 26.9278 128.514 29.99 128.514 35.0836V53.5015H116.49V17.099H128.514V22.6258C130.486 18.3388 133.19 17.099 137.2 17.099H151.929V22.6258C153.9 18.3388 156.597 17.099 160.607 17.099H164.543V26.9278ZM113.861 38.1383H88.7732C89.4304 42.2163 91.9847 44.5465 96.2867 44.5465C99.4982 44.5465 101.754 43.2395 102.486 40.9092L113.129 43.8967C110.507 50.2302 104.017 54.084 96.2867 54.084C83.2314 54.084 77.249 43.9639 77.249 35.3002C77.249 26.7859 82.4995 16.5911 95.5473 16.5911C109.409 16.5911 114.002 26.9278 114.002 34.5758C114.002 36.2487 113.928 37.3392 113.853 38.1383H113.861ZM102.194 31.0804C101.896 27.9435 99.6401 25.0307 95.5548 25.0307C91.7607 25.0307 89.5051 26.7112 88.7732 31.0804H102.194ZM56.2469 53.494H66.8226L80.0198 17.0915H67.9205L61.4975 38.2802L54.9399 17.0915H42.8929L56.2469 53.494ZM6.95346 53.494H18.9183V26.9203H30.3006V53.494H42.1834V17.0915H18.9183V14.836C18.9183 12.3563 20.6735 10.8327 23.4444 10.8327H30.3006V1.00391H21.4577C12.7791 1.00391 6.94599 6.32163 6.94599 14.1115V17.099H0.171875V26.9278H6.95346V53.5015V53.494Z" fill="#32457A"/>
</g>
<defs>
<clipPath id="clip0_806_64">
<rect width="179.249" height="53.7747" fill="white" transform="translate(0.171875 0.910156)"/>
</clipPath>
</defs>
</svg>
